<svg width="50" height="49" viewBox="0 0 50 49" fill="none" xmlns="http://www.w3.org/2000/svg">
<path id="path16" fill-rule="evenodd" clip-rule="evenodd" d="M22.4045 0.700246C22.9614 1.25702 22.9614 2.16086 22.4045 2.71773C21.8476 3.27557 20.9436 3.27557 20.3868 2.71773C19.8297 2.16086 19.8297 1.25702 20.3868 0.700246C20.9436 0.143115 21.8476 0.143115 22.4045 0.700246ZM49.0125 27.3079C49.5694 27.8651 49.5694 28.7688 49.0125 29.3259C48.4554 29.8828 47.5519 29.8828 46.9948 29.3259C46.4379 28.7688 46.4379 27.8651 46.9948 27.3079C47.5519 26.7512 48.4554 26.7512 49.0125 27.3079ZM35.589 11.731C35.3778 10.9078 35.1383 10.0905 34.8636 9.28613C34.7869 9.06234 34.6403 8.8983 34.4251 8.79901C33.5341 8.38532 33.3185 7.19634 34.0197 6.49506C34.5766 5.9382 35.4796 5.9382 36.0375 6.49506C36.4602 6.91866 36.5748 7.56137 36.3242 8.10239C36.2294 8.30734 36.2186 8.5105 36.2923 8.72394C36.5459 9.46221 36.7712 10.2101 36.9721 10.9647C37.0376 11.2098 37.1879 11.3903 37.4161 11.501C37.7615 11.668 38.0455 11.952 38.2123 12.2972C38.3221 12.5247 38.5035 12.6752 38.7488 12.7404C39.5028 12.9413 40.2503 13.1676 40.9887 13.4212C41.202 13.4939 41.4059 13.4831 41.6101 13.389C42.1519 13.1387 42.7938 13.2523 43.2174 13.676C43.7743 14.2329 43.7743 15.1366 43.2174 15.6935C42.5161 16.3947 41.3271 16.1779 40.9142 15.2876C40.8142 15.0721 40.6512 14.9257 40.4264 14.8491C39.6219 14.5745 38.8055 14.3347 37.9822 14.1245C37.905 14.2163 37.8174 14.2999 37.7226 14.3741C37.8623 15.1557 37.9815 15.9418 38.0823 16.7294C38.118 17.0048 38.2659 17.2218 38.5097 17.3555C38.8769 17.5565 39.175 17.8753 39.3528 18.2546C39.4689 18.5029 39.6744 18.6644 39.9438 18.719C40.5631 18.8443 41.1792 18.9855 41.7899 19.1447C42.0367 19.2092 42.268 19.1683 42.4767 19.0233C43.3943 18.3889 44.7167 18.8434 45.0536 19.9057C45.1288 20.144 45.2851 20.3177 45.5136 20.4179C46.1675 20.7057 46.8079 21.028 47.4219 21.394C47.6071 21.5039 47.7982 21.5365 48.01 21.4949C48.4775 21.4038 48.9579 21.5495 49.2947 21.8863C49.8516 22.4435 49.8516 23.347 49.2947 23.9041C48.7379 24.461 47.8341 24.461 47.2773 23.9041C47.0775 23.7037 46.9416 23.4518 46.8869 23.1757C46.8378 22.9306 46.7026 22.7415 46.4863 22.6163C46.0157 22.3431 45.5294 22.0966 45.0323 21.8728C44.7789 21.7589 44.5158 21.7718 44.2737 21.91C43.4004 22.4116 42.246 22.0131 41.8635 21.082C41.7596 20.8293 41.5645 20.6585 41.2998 20.5903C40.7816 20.4576 40.2601 20.3385 39.7366 20.2313C39.4491 20.1729 39.179 20.255 38.9733 20.4642C38.9166 20.5228 38.8556 20.5775 38.7919 20.6282C38.5749 20.8013 38.4656 21.0433 38.4786 21.3203C38.496 21.7072 38.5102 22.0951 38.521 22.4826C38.5246 22.6141 38.5281 22.746 38.5301 22.8782C38.5371 23.1711 38.6803 23.4208 38.9316 23.5732C39.3012 23.7977 39.6002 24.1279 39.789 24.5172C39.9149 24.7783 40.1424 24.9428 40.4302 24.9814C41.0136 25.0589 41.5966 25.1515 42.1747 25.2631C42.4205 25.3108 42.6461 25.2569 42.8439 25.1036C43.5195 24.5811 44.4794 24.6415 45.0849 25.2463C45.7479 25.9098 45.7479 26.9856 45.0849 27.6496C44.263 28.4706 42.8628 28.2378 42.3553 27.1943C42.2354 26.9485 42.0275 26.79 41.759 26.739C41.2893 26.651 40.8172 26.5752 40.3437 26.5105C40.0348 26.469 39.7504 26.5881 39.5627 26.8361C39.3731 27.088 39.1303 27.3 38.8549 27.453C38.5962 27.5964 38.4443 27.8385 38.4263 28.133C38.3753 28.9851 38.3071 29.8357 38.222 30.6858C38.194 30.9642 38.2918 31.2123 38.5027 31.3976C39.5414 32.3056 39.3034 34.0607 38.053 34.6512C37.7994 34.7703 37.6371 34.9836 37.5869 35.259C37.4367 36.0968 37.2676 36.9315 37.0762 37.7615C37.0193 38.0099 37.0682 38.2435 37.2204 38.4476C37.7241 39.1236 37.6552 40.0678 37.0589 40.6643C36.3954 41.3273 35.3204 41.3273 34.6564 40.6643C33.8226 39.8303 34.0789 38.4148 35.1382 37.9216C35.3818 37.8087 35.5404 37.6131 35.6003 37.3512C35.7749 36.5884 35.9311 35.8221 36.0701 35.0525C36.1218 34.7658 36.033 34.4972 35.8213 34.2968C34.8681 33.3968 35.1072 31.7382 36.2643 31.1305C36.5216 30.9953 36.6779 30.7637 36.7067 30.4737C36.7848 29.6856 36.8485 28.8955 36.8972 28.1049C36.9162 27.7983 36.7825 27.5297 36.5269 27.3591C36.2324 27.1624 35.9858 26.8968 35.812 26.588C35.661 26.3194 35.3991 26.1655 35.0911 26.1632C34.5661 26.1587 34.0416 26.1622 33.5181 26.1729C33.2109 26.18 32.9534 26.3345 32.805 26.6031C32.5772 27.013 32.2213 27.346 31.7979 27.5473C31.5325 27.6732 31.3632 27.907 31.3268 28.1989C31.2106 29.1345 31.078 30.0679 30.9269 30.9983C30.8788 31.2935 30.9784 31.5675 31.2046 31.7631C32.4776 32.8665 32.0347 35.0322 30.441 35.5662C30.1596 35.6611 29.9637 35.8742 29.8948 36.1638C29.646 37.2062 29.372 38.2427 29.07 39.2708C28.997 39.5184 29.0342 39.7567 29.1776 39.9704C29.7816 40.8712 29.3555 42.1499 28.3338 42.5105C28.0917 42.5962 27.9202 42.7638 27.8302 43.0043C27.3951 44.1659 26.9143 45.3127 26.376 46.4303C26.291 46.6066 26.2812 46.7831 26.3467 46.9676C26.5288 47.4852 26.3988 48.0619 26.0098 48.4513C25.4527 49.008 24.549 49.0088 23.9918 48.4513C23.2345 47.6937 23.5624 46.3766 24.5923 46.0736C24.7915 46.0147 24.9365 45.8917 25.027 45.7041C25.5247 44.6662 25.9702 43.6031 26.376 42.5262C26.4709 42.2751 26.4468 42.0225 26.3056 41.794C25.7614 40.9116 26.1623 39.7126 27.1243 39.3308C27.3723 39.2323 27.5432 39.0448 27.6181 38.7882C27.9006 37.8223 28.1579 36.8488 28.393 35.8697C28.465 35.5688 28.3779 35.2765 28.1517 35.0656C26.971 33.9599 27.3891 31.9186 28.8969 31.3475C29.1851 31.2381 29.3758 31.0043 29.4249 30.7C29.5661 29.8244 29.6921 28.9464 29.8014 28.067C29.8386 27.7635 29.7232 27.4873 29.4807 27.3015C29.3068 27.1678 29.1518 27.009 29.0228 26.8316C28.8445 26.5848 28.5698 26.4612 28.2671 26.491C28.0682 26.5098 27.871 26.5304 27.6728 26.5509C27.1463 26.6061 26.6198 26.6668 26.0938 26.7323C25.7911 26.7694 25.552 26.9493 25.4306 27.2284C25.1946 27.774 24.7478 28.2074 24.196 28.4274C23.9206 28.5373 23.7385 28.7583 23.6838 29.0503C23.4578 30.2631 23.208 31.4716 22.931 32.6746C22.8681 32.9497 22.9363 33.2102 23.1252 33.4206C24.048 34.4443 23.598 36.1399 22.2997 36.5884C22.0343 36.6802 21.8497 36.8746 21.7707 37.1433C21.4409 38.2715 21.0842 39.3922 20.6903 40.4994C20.6244 40.6853 20.6341 40.8644 20.7206 41.042C20.9863 41.5884 20.8769 42.2448 20.446 42.6749C19.8889 43.2326 18.9859 43.2326 18.4282 42.6749C17.7134 41.9611 17.9547 40.7445 18.8765 40.353C19.0656 40.2733 19.1953 40.136 19.2638 39.9427C19.6363 38.8931 19.9747 37.8321 20.2879 36.7638C20.3695 36.4846 20.3116 36.2107 20.1234 35.9889C19.263 34.9738 19.6925 33.3566 20.9324 32.8856C21.2026 32.7822 21.3854 32.5728 21.4499 32.2913C21.7139 31.138 21.9537 29.9792 22.1707 28.8168C22.2269 28.517 22.1283 28.2348 21.8983 28.0336C21.8203 27.9651 21.7473 27.8924 21.6791 27.8142C21.4787 27.5841 21.1965 27.4858 20.8965 27.5417C19.7334 27.7589 18.5745 27.9993 17.4222 28.2626C17.1404 28.3271 16.9306 28.51 16.8272 28.7801C16.3569 30.0208 14.7387 30.4495 13.7236 29.5891C13.5018 29.4017 13.2287 29.3432 12.9495 29.4245C11.8811 29.7385 10.8194 30.0769 9.77085 30.4489C9.5775 30.5179 9.43928 30.6471 9.35955 30.836C8.96825 31.7578 7.75169 31.9991 7.03749 31.2845C6.47992 30.7273 6.47992 29.8236 7.03749 29.2667C7.46773 28.8355 8.12494 28.7264 8.67075 28.9926C8.84808 29.0786 9.02789 29.0891 9.21301 29.0229C10.3202 28.6286 11.4412 28.271 12.5695 27.9419C12.8389 27.8635 13.0323 27.6784 13.1249 27.4128C13.5733 26.1145 15.2692 25.6645 16.2922 26.5872C16.5023 26.7762 16.7627 26.8444 17.0381 26.7814C18.2409 26.5053 19.4497 26.255 20.6622 26.029C20.9542 25.9747 21.1759 25.7926 21.2853 25.5164C21.5053 24.9649 21.9384 24.5179 22.4833 24.2821C22.764 24.1604 22.9423 23.9214 22.9805 23.6186C23.0464 23.0929 23.1071 22.5672 23.1626 22.0404C23.1831 21.8425 23.2027 21.6443 23.2225 21.4462C23.2514 21.1427 23.1277 20.8687 22.8811 20.6896C22.7043 20.5607 22.545 20.4059 22.412 20.2321C22.2262 19.9893 21.9491 19.8739 21.6455 19.9118C20.7663 20.0212 19.8889 20.1463 19.0132 20.2875C18.7082 20.337 18.4747 20.5273 18.3653 20.8163C17.7939 22.3241 15.7528 22.7425 14.6477 21.5617C14.4362 21.3353 14.144 21.2482 13.8427 21.3203C12.8647 21.5548 11.8902 21.8126 10.9242 22.0951C10.6679 22.1693 10.4805 22.3409 10.3817 22.5889C10.0009 23.5512 8.80118 23.951 7.9192 23.4069C7.69019 23.2665 7.43836 23.2423 7.18625 23.3372C6.10968 23.7423 5.04639 24.1886 4.00841 24.6854C3.82152 24.7761 3.6979 24.921 3.63967 25.1204C3.33615 26.1511 2.01881 26.479 1.26151 25.7214C0.704382 25.1638 0.704376 24.2608 1.26221 23.703C1.65006 23.3147 2.22676 23.184 2.74496 23.3668C2.92857 23.4313 3.10617 23.4215 3.28226 23.3364C4.39971 22.7984 5.54654 22.3181 6.70814 21.8826C6.94972 21.7923 7.11732 21.6215 7.20236 21.3787C7.56357 20.3573 8.84127 19.9308 9.742 20.5348C9.95677 20.6791 10.1943 20.7154 10.4416 20.6424C11.4706 20.3415 12.507 20.0668 13.549 19.818C13.8382 19.7488 14.0522 19.5529 14.1462 19.2714C14.6805 17.6779 16.847 17.2356 17.9494 18.5089C18.1459 18.7341 18.42 18.8337 18.7142 18.7857C19.6453 18.6348 20.5779 18.5014 21.5136 18.386C21.8058 18.3493 22.0393 18.181 22.1655 17.9147C22.3666 17.4915 22.7005 17.1363 23.1101 16.9077C23.378 16.759 23.5328 16.5016 23.5398 16.1951C23.5504 15.6709 23.5541 15.1466 23.5504 14.6221C23.5477 14.3134 23.3938 14.0525 23.1246 13.9005C22.8156 13.7266 22.55 13.4808 22.3536 13.1858C22.1828 12.93 21.9141 12.7963 21.6077 12.8153C20.817 12.864 20.0271 12.9277 19.2387 13.0059C18.949 13.0348 18.7175 13.1911 18.5823 13.4489C17.9745 14.6053 16.3157 14.8451 15.4165 13.8915C15.2161 13.6795 14.9477 13.591 14.66 13.6431C13.8904 13.7821 13.1241 13.9376 12.3616 14.1122C12.0996 14.1722 11.904 14.3306 11.7909 14.5744C11.2984 15.6345 9.88305 15.8901 9.04851 15.0564C8.38528 14.3931 8.38528 13.317 9.04851 12.6539C9.64475 12.0573 10.5888 11.9884 11.2649 12.4923C11.4698 12.6449 11.7028 12.6939 11.9517 12.6362C12.7812 12.4451 13.6157 12.2758 14.4535 12.1259C14.7297 12.0761 14.9422 11.9131 15.0616 11.6597C15.6518 10.4093 17.4069 10.1707 18.3159 11.2098C18.4995 11.4207 18.7494 11.5185 19.0275 11.4912C19.8769 11.4056 20.7282 11.338 21.5795 11.2865C21.8747 11.2682 22.1163 11.1164 22.2596 10.8583C22.4128 10.5821 22.6245 10.3393 22.8763 10.1497C23.1252 9.96289 23.2444 9.67771 23.202 9.36968C23.1375 8.89608 23.0625 8.42344 22.9737 7.95365C22.9235 7.685 22.765 7.47707 22.5181 7.35717C21.4757 6.8495 21.2426 5.44955 22.0636 4.62854C22.7269 3.96434 23.8029 3.96434 24.4661 4.62854C25.0717 5.23328 25.1316 6.19402 24.6097 6.86849C24.4564 7.0667 24.4024 7.2927 24.4493 7.53799C24.561 8.11618 24.6536 8.69893 24.7311 9.28234C24.7697 9.57002 24.9344 9.79748 25.1953 9.92447C25.5846 10.1123 25.914 10.4123 26.1395 10.7819C26.2925 11.0322 26.5416 11.1756 26.8353 11.1817C26.9665 11.1843 27.0984 11.1878 27.2307 11.1922C27.6181 11.202 28.0055 11.2165 28.393 11.2349C28.6699 11.2469 28.9115 11.1375 29.0843 10.9205C29.1349 10.8568 29.1896 10.7961 29.2484 10.7392C29.4568 10.5335 29.5403 10.2633 29.4822 9.97659C29.375 9.45211 29.2559 8.93119 29.1222 8.41371C29.054 8.14779 28.8842 7.95283 28.6306 7.84903C27.7002 7.46649 27.3019 6.31219 27.8028 5.43906C27.9408 5.19775 27.9538 4.93357 27.8399 4.67996C27.6162 4.18379 27.3693 3.69745 27.0961 3.22607C26.971 3.00989 26.7829 2.87468 26.5368 2.82548C26.2606 2.77088 26.0088 2.63595 25.8086 2.43623C25.2515 1.87839 25.2515 0.975352 25.8086 0.418045C26.3663 -0.139086 27.2692 -0.139086 27.8271 0.418045C28.163 0.755367 28.309 1.23577 28.2177 1.70326C28.1761 1.91422 28.2086 2.10539 28.3188 2.29051C28.6844 2.90534 29.0068 3.54463 29.2953 4.19884C29.3954 4.42811 29.5685 4.58368 29.8069 4.65889C30.869 4.99577 31.3243 6.31847 30.6892 7.23602C30.5452 7.4445 30.5033 7.67675 30.5678 7.92249C30.7278 8.53333 30.869 9.14968 30.9934 9.76946C31.0481 10.0388 31.2097 10.2438 31.4588 10.3597C31.838 10.5375 32.1561 10.8366 32.3569 11.2035C32.4906 11.4473 32.7084 11.5953 32.9834 11.6301C33.7709 11.732 34.5568 11.8501 35.3394 11.9899C35.4129 11.8951 35.4965 11.8085 35.589 11.731ZM14.065 35.8768C14.1068 35.7471 13.9664 35.6059 13.8357 35.6482C13.0057 35.9132 12.193 36.2378 11.4008 36.5999C10.339 37.0856 9.29132 37.647 8.30174 38.2678C8.15529 38.3596 8.06044 38.4818 8.00752 38.6457C7.74391 39.4562 6.70212 39.7116 6.09216 39.1025C5.64139 38.6518 5.64139 37.9201 6.09216 37.4696C6.32736 37.2343 6.6507 37.1119 6.98236 37.1332C7.13686 37.1433 7.26978 37.109 7.40128 37.0271C8.47403 36.3487 9.61139 35.7363 10.7647 35.2091C11.5473 34.8506 12.3477 34.529 13.1637 34.2581C13.3957 34.1806 13.564 34.0281 13.6636 33.8051C13.7486 33.6148 13.8678 33.4424 14.014 33.2959C14.6775 32.6327 15.7534 32.6327 16.4166 33.2959C17.0805 33.9591 17.0805 35.0353 16.4166 35.6984C16.2703 35.8454 16.097 35.9646 15.9073 36.0491C15.6851 36.1485 15.5319 36.3168 15.4553 36.5491C15.1842 37.3648 14.8624 38.1659 14.5044 38.9478C13.9772 40.1011 13.3639 41.2395 12.6864 42.3122C12.6036 42.4435 12.5695 42.5764 12.5792 42.7311C12.6006 43.062 12.4785 43.3851 12.2432 43.6204C11.7924 44.0714 11.0617 44.0714 10.6107 43.6204C10.0009 43.0103 10.2573 41.9686 11.067 41.706C11.231 41.6521 11.3531 41.5572 11.4447 41.4108C12.0656 40.4212 12.6272 39.3742 13.1126 38.3119C13.4755 37.5196 13.7993 36.7068 14.065 35.8768ZM48.1747 16.9419C48.6255 17.3927 48.6255 18.1241 48.1747 18.5748C47.724 19.0255 46.9926 19.0255 46.5425 18.5748C46.0911 18.1241 46.0911 17.3927 46.5425 16.9419C46.9926 16.4911 47.724 16.4911 48.1747 16.9419ZM39.4331 10.387C39.0984 10.0526 39.0029 9.54875 39.1888 9.11551C39.2562 8.95702 39.273 8.80599 39.242 8.63671C39.1933 8.36806 39.1228 8.1009 39.0385 7.84207C38.8983 7.41333 38.7145 6.97787 38.4862 6.58834C38.4185 6.47472 38.3367 6.3934 38.2205 6.32968C37.6952 6.03997 37.5945 5.31683 38.0186 4.8927C38.5188 4.39176 39.3899 4.63938 39.5462 5.3304C39.5657 5.41623 39.5961 5.48818 39.6448 5.56118C40.003 6.10672 40.2905 6.74411 40.4926 7.36424C40.5844 7.64413 40.6617 7.93178 40.7201 8.22078C40.7588 8.41263 40.8483 8.56372 40.9971 8.69034C41.044 8.73052 41.0888 8.77615 41.1293 8.82332C41.2567 8.97207 41.4074 9.06138 41.5988 9.10022C41.8888 9.15872 42.1755 9.23622 42.4564 9.32701C43.0762 9.52965 43.7136 9.81664 44.2594 10.1753C44.3319 10.224 44.4042 10.2539 44.4892 10.2734C45.1802 10.4297 45.4278 11.3016 44.928 11.8015C44.5037 12.2257 43.7806 12.1244 43.4906 11.5998C43.4269 11.4837 43.3457 11.4011 43.2318 11.3342C42.8424 11.1057 42.4063 10.9213 41.9781 10.7819C41.7187 10.6968 41.4523 10.6268 41.184 10.5776C41.0136 10.5465 40.8626 10.5638 40.7048 10.6313C40.2716 10.8174 39.7679 10.7211 39.4331 10.387ZM18.1375 45.2072C18.5883 45.6579 18.5883 46.3886 18.1375 46.8401C17.6868 47.2908 16.9553 47.2908 16.5046 46.8401C16.0539 46.3886 16.0539 45.6579 16.5046 45.2072C16.9553 44.7564 17.6868 44.7564 18.1375 45.2072ZM34.3034 45.0108C34.8606 45.5669 34.8606 46.4706 34.3034 47.0283C33.7456 47.5853 32.8428 47.5853 32.285 47.0283C31.7281 46.4706 31.7281 45.5676 32.285 45.0108C32.8428 44.4529 33.7456 44.4529 34.3034 45.0108ZM42.7326 39.2581C42.6884 39.4562 42.7233 39.6376 42.8379 39.8052C43.2243 40.3705 43.1528 41.1323 42.6681 41.6179C42.1103 42.1751 41.2072 42.1751 40.6502 41.6179C39.9993 40.9667 40.1297 39.8689 40.9153 39.3907C41.0858 39.2869 41.1915 39.1379 41.2346 38.9433C41.4104 38.1509 41.5614 37.3519 41.6921 36.5506C41.8326 35.6924 41.9495 34.8296 42.0397 33.9639C42.0646 33.7287 42.0009 33.5204 41.8476 33.3391C41.3713 32.773 41.4074 31.9354 41.9312 31.4119C42.6285 30.7146 43.8207 30.9238 44.2351 31.8185C44.3214 32.0061 44.4526 32.1373 44.6395 32.2246C44.9906 32.3876 45.3292 32.5713 45.6631 32.7654C45.8036 32.8474 45.9438 32.8755 46.1046 32.855C46.4598 32.8096 46.8142 32.9302 47.0675 33.1836C47.5183 33.6343 47.5183 34.3658 47.0675 34.8168C46.4811 35.4032 45.4822 35.193 45.1783 34.4297C45.1176 34.2765 45.0218 34.1656 44.8782 34.0821C44.5758 33.9067 44.269 33.7407 43.9519 33.595C43.8032 33.5267 43.6128 33.6381 43.596 33.8006C43.4974 34.8022 43.3644 35.803 43.2021 36.7971C43.068 37.6211 42.9124 38.4431 42.7326 39.2581ZM32.7706 1.53799C33.2216 1.98849 33.2216 2.72021 32.7706 3.17071C32.3201 3.62174 31.5892 3.62174 31.1376 3.17071C30.6869 2.72021 30.6869 1.98849 31.1376 1.53799C31.5892 1.08705 32.3201 1.08705 32.7706 1.53799ZM4.50607 31.575C4.95604 32.0257 4.95604 32.7571 4.50607 33.2079C4.05459 33.6586 3.32385 33.6586 2.87335 33.2079C2.42241 32.7571 2.42241 32.0257 2.87335 31.575C3.32385 31.1245 4.05459 31.1245 4.50607 31.575ZM4.70269 15.4098C5.25956 15.9667 5.25956 16.8706 4.70269 17.4275C4.14591 17.9845 3.24182 17.9845 2.68505 17.4275C2.12739 16.8706 2.12739 15.9667 2.68505 15.4098C3.24182 14.8521 4.14591 14.8527 4.70269 15.4098ZM10.4547 6.98018C11.2704 6.80028 12.0914 6.64453 12.9161 6.51029C13.9102 6.348 14.9105 6.21535 15.9129 6.11651C16.0744 6.10067 16.1861 5.90934 16.1176 5.76085C15.9718 5.44353 15.8057 5.13703 15.6307 4.83502C15.5476 4.69149 15.436 4.59574 15.283 4.53451C14.5195 4.23099 14.31 3.23166 14.896 2.64498C15.3468 2.19421 16.0782 2.19421 16.5289 2.64498C16.7825 2.8985 16.9032 3.25342 16.8575 3.60862C16.8377 3.7687 16.8655 3.90914 16.9471 4.04939C17.1412 4.38344 17.3248 4.72182 17.4881 5.07304C17.5752 5.26064 17.7066 5.3911 17.8947 5.47844C18.7887 5.89257 18.9986 7.08397 18.3008 7.78233C17.7774 8.30477 16.9396 8.34143 16.3734 7.86491C16.1921 7.71236 15.9849 7.64792 15.7488 7.67296C14.8832 7.76402 14.0203 7.8801 13.1622 8.02035C12.3605 8.15079 11.5619 8.30178 10.7695 8.47814C10.5746 8.52132 10.4258 8.62769 10.3225 8.7975C9.84438 9.58284 8.7457 9.71351 8.09557 9.06285C7.53773 8.50545 7.53773 7.60241 8.09557 7.04537C8.58014 6.55947 9.34221 6.48895 9.9074 6.87529C10.0744 6.98918 10.2565 7.02407 10.4547 6.98018ZM29.885 20.8073C29.4759 20.5798 29.1334 20.2366 28.9055 19.8277C28.749 19.5478 28.4698 19.3891 28.1494 19.3999C27.7283 19.4134 27.3071 19.43 26.886 19.4513C26.5794 19.4673 26.3284 19.6289 26.1872 19.9005C25.9694 20.3187 25.625 20.6608 25.2036 20.874C24.9404 21.0084 24.7787 21.2445 24.7509 21.5389C24.7296 21.758 24.7074 21.9782 24.6846 22.1974C24.6262 22.7515 24.5625 23.3046 24.4935 23.8569C24.4564 24.1514 24.5625 24.4179 24.7915 24.606C24.9071 24.7001 25.0125 24.8061 25.1065 24.921C25.2947 25.15 25.5613 25.2561 25.8555 25.2198C26.4081 25.1507 26.961 25.0863 27.5151 25.0286C27.7343 25.0053 27.9546 24.9829 28.1746 24.9616C28.469 24.9337 28.7048 24.7722 28.8385 24.5086C29.0517 24.0885 29.3939 23.7433 29.812 23.5261C30.0846 23.3841 30.2454 23.1323 30.2612 22.8272C30.2823 22.4053 30.3001 21.9849 30.3136 21.5632C30.3242 21.243 30.1657 20.9638 29.885 20.8073ZM35.8749 14.5273C35.5845 14.3703 35.3429 14.128 35.186 13.8383C35.0585 13.603 34.8528 13.4565 34.5897 13.4119C34.0137 13.3155 33.4354 13.2304 32.8564 13.1555C32.569 13.1174 32.3078 13.2169 32.1182 13.4362C32.059 13.5044 31.996 13.5681 31.9278 13.628C31.7206 13.8101 31.6233 14.0555 31.6484 14.3306C31.6885 14.7724 31.7236 15.2148 31.7525 15.6578C31.7728 15.9651 31.9398 16.215 32.216 16.3517C32.7102 16.596 33.1175 17.0033 33.3611 17.4965C33.4977 17.7727 33.7481 17.9397 34.0546 17.9603C34.4976 17.9891 34.9401 18.024 35.3826 18.0641C35.6572 18.09 35.9023 17.9922 36.0852 17.7849C36.1446 17.7175 36.2081 17.6535 36.2763 17.5953C36.4958 17.4047 36.5951 17.1438 36.5573 16.8561C36.4828 16.2772 36.3969 15.699 36.3007 15.1228C36.2568 14.8596 36.1102 14.6548 35.8749 14.5273ZM32.2857 20.8286C32.0133 20.9733 31.8549 21.2307 31.845 21.5395C31.8305 22.0146 31.8107 22.4897 31.7865 22.964C31.7713 23.259 31.8959 23.5163 32.1363 23.6876C32.3602 23.8472 32.5552 24.0476 32.7084 24.2751C32.8725 24.521 33.1243 24.6521 33.4195 24.6461C34.009 24.6333 34.5987 24.6295 35.1884 24.6348C35.4819 24.6375 35.7315 24.5051 35.8933 24.2598C36.0762 23.9836 36.3197 23.7478 36.6021 23.5755C36.8645 23.4145 37.0087 23.1506 37.0019 22.8438C36.9993 22.7377 36.9966 22.6306 36.9948 22.5245C36.9841 22.167 36.971 21.8096 36.9553 21.4524C36.9422 21.1647 36.7988 20.9242 36.5524 20.7755C36.2489 20.5918 35.9961 20.3269 35.8282 20.0151C35.6903 19.7588 35.4573 19.6045 35.1668 19.5779C34.791 19.5448 34.4148 19.516 34.0382 19.4907C33.7167 19.4688 33.432 19.6183 33.266 19.8952C33.0314 20.2875 32.6896 20.6121 32.2857 20.8286ZM28.8846 17.4267C29.0996 17.0237 29.4249 16.6823 29.818 16.447C30.0944 16.2817 30.2439 15.997 30.2226 15.6754C30.1975 15.2981 30.168 14.9219 30.1346 14.5461C30.108 14.2564 29.9547 14.0226 29.6981 13.8847C29.3855 13.7169 29.1207 13.4651 28.9373 13.1615C28.7893 12.9147 28.5478 12.7708 28.2603 12.7577C27.9029 12.7419 27.5454 12.7288 27.188 12.7191C27.0819 12.7164 26.9747 12.7138 26.8686 12.7111C26.5621 12.704 26.2981 12.8493 26.138 13.1102C25.9646 13.3941 25.7296 13.6374 25.4534 13.8204C25.2076 13.9814 25.0747 14.2317 25.0777 14.5247C25.083 15.1141 25.0795 15.7038 25.0672 16.2934C25.0601 16.5886 25.1923 16.8411 25.4377 17.0051C25.6656 17.1577 25.8663 17.3528 26.0249 17.5766C26.1962 17.8171 26.4535 17.9416 26.7487 17.927C27.2236 17.9022 27.6987 17.8832 28.1738 17.8688C28.4818 17.8588 28.7391 17.6992 28.8846 17.4267Z" fill="#1560BD"/>
</svg>
