<svg width="92" height="93" viewBox="0 0 92 93" fill="none" xmlns="http://www.w3.org/2000/svg">
<path fill-rule="evenodd" clip-rule="evenodd" d="M40.457 1.32282C41.5025 2.37544 41.5025 4.08117 40.457 5.13378C39.4115 6.1864 37.7163 6.1864 36.6718 5.13378C35.6253 4.08117 35.6253 2.37544 36.6718 1.32282C37.7163 0.27021 39.4115 0.27021 40.457 1.32282ZM90.3832 51.5879C91.429 52.6405 91.429 54.349 90.3841 55.3997C89.3376 56.4532 87.6428 56.4526 86.5973 55.3997C85.5518 54.349 85.5518 52.6395 86.5973 51.5879C87.6428 50.5359 89.3377 50.5359 90.3832 51.5879ZM65.195 22.1607C64.8008 20.6047 64.35 19.0634 63.8353 17.544C63.6923 17.1186 63.4157 16.8093 63.0121 16.6204C61.3407 15.8401 60.9356 13.5946 62.2506 12.2706C63.2961 11.2186 64.9913 11.2186 66.0368 12.2696C66.8317 13.0702 67.045 14.2832 66.574 15.3064C66.3983 15.6917 66.3783 16.0776 66.5149 16.4804C66.9911 17.8749 67.4129 19.2879 67.7917 20.7129C67.9148 21.1742 68.1953 21.517 68.6242 21.7263C69.2716 22.0407 69.8047 22.578 70.117 23.2298C70.3236 23.66 70.6651 23.9434 71.1242 24.0679C72.5396 24.4487 73.943 24.8741 75.3274 25.3529C75.7271 25.4903 76.1108 25.471 76.4941 25.2924C77.5097 24.8192 78.7155 25.0346 79.5104 25.8342C80.5553 26.8878 80.5543 28.5951 79.5088 29.6458C78.1937 30.9701 75.9633 30.562 75.188 28.8795C75.0004 28.4732 74.6954 28.1954 74.2726 28.0505C72.7628 27.5326 71.2309 27.0793 69.6871 26.6824C69.5406 26.8548 69.3773 27.0143 69.199 27.1537C69.4622 28.6311 69.6851 30.1146 69.8747 31.6046C69.9422 32.1238 70.2188 32.5344 70.6744 32.7845C71.3646 33.1671 71.9259 33.7676 72.2581 34.4848C72.4766 34.9542 72.8612 35.2595 73.3666 35.3614C74.5287 35.5979 75.6854 35.8647 76.8321 36.1672C77.2928 36.2891 77.7282 36.2105 78.1199 35.9362C79.841 34.7377 82.324 35.5979 82.9551 37.6051C83.0971 38.0544 83.3885 38.3817 83.8184 38.5726C85.0454 39.1154 86.2474 39.7252 87.3986 40.4149C87.7456 40.6229 88.1055 40.6863 88.5026 40.6064C89.3788 40.433 90.2794 40.709 90.9123 41.3466C91.9581 42.3992 91.9581 44.1045 90.9123 45.1571C89.8668 46.2101 88.172 46.2101 87.1274 45.1571C86.7531 44.7803 86.498 44.3044 86.3952 43.781C86.3039 43.3178 86.0508 42.9629 85.6447 42.7255C84.7595 42.2102 83.8486 41.7445 82.9159 41.3207C82.4407 41.1053 81.9443 41.129 81.4925 41.3904C79.8529 42.3376 77.6871 41.5849 76.9696 39.8261C76.7746 39.3483 76.4086 39.0275 75.9122 38.8981C74.9403 38.6452 73.9613 38.4213 72.9778 38.2188C72.4393 38.1084 71.9313 38.2644 71.5458 38.6606C71.4385 38.7706 71.3247 38.8735 71.2052 38.9696C70.7981 39.296 70.5931 39.7518 70.6169 40.2765C70.6507 41.0072 70.677 41.7399 70.6972 42.4716C70.7043 42.721 70.7097 42.9695 70.7152 43.2179C70.7271 43.7727 70.9967 44.2449 71.4667 44.5328C72.1598 44.9572 72.7217 45.5798 73.0752 46.3161C73.3139 46.8094 73.7399 47.1204 74.2791 47.1919C75.3757 47.3378 76.4687 47.5137 77.5524 47.7256C78.0142 47.8146 78.4376 47.7127 78.8094 47.4231C80.0762 46.4365 81.8777 46.5521 83.0126 47.6936C84.2582 48.9471 84.2582 50.9782 83.0126 52.2333C81.4713 53.7841 78.8447 53.3428 77.8921 51.3725C77.6681 50.9073 77.2784 50.6085 76.773 50.5125C75.892 50.3455 75.0049 50.2031 74.1162 50.0805C73.5388 50.0025 73.0032 50.2261 72.6533 50.6965C72.2963 51.1733 71.8411 51.5724 71.3238 51.8619C70.8393 52.1334 70.5543 52.5901 70.5195 53.1459C70.4238 54.7559 70.2962 56.3637 70.1359 57.9681C70.0832 58.4944 70.268 58.9641 70.6645 59.3135C72.6115 61.0308 72.1643 64.3464 69.8182 65.4595C69.3436 65.6853 69.0377 66.0869 68.9458 66.6086C68.6625 68.1914 68.3447 69.7684 67.9868 71.3363C67.8801 71.807 67.971 72.246 68.2579 72.6323C69.2026 73.9094 69.0731 75.6929 67.9546 76.82C66.7099 78.0725 64.6925 78.0725 63.4465 76.82C61.8808 75.2436 62.3608 72.5708 64.35 71.6402C64.8072 71.4254 65.105 71.0549 65.2162 70.5615C65.5439 69.1211 65.8363 67.6733 66.0979 66.2189C66.1962 65.6771 66.0294 65.1697 65.6313 64.7902C63.8417 63.091 64.2918 59.9572 66.4629 58.8108C66.9458 58.5543 67.2388 58.1165 67.2928 57.5701C67.4402 56.0801 67.5594 54.5874 67.6507 53.0936C67.6851 52.5142 67.4357 52.0069 66.9557 51.685C66.4028 51.3127 65.9401 50.8114 65.614 50.2281C65.3299 49.7203 64.84 49.4293 64.2607 49.4248C63.2762 49.4151 62.2924 49.4249 61.3089 49.4443C60.7335 49.4573 60.2506 49.7486 59.972 50.2568C59.5447 51.0296 58.8773 51.6598 58.0821 52.0402C57.5831 52.2786 57.267 52.7208 57.1986 53.2717C56.981 55.0379 56.7304 56.8013 56.4483 58.5591C56.358 59.1164 56.5447 59.6357 56.9682 60.0051C59.358 62.0893 58.5265 66.1797 55.5374 67.1903C55.0083 67.3682 54.642 67.7716 54.5109 68.3192C54.0447 70.288 53.5293 72.2447 52.9635 74.1869C52.8289 74.6553 52.8954 75.1046 53.1666 75.5109C54.2988 77.2118 53.4991 79.6263 51.5829 80.3075C51.1276 80.4699 50.807 80.7863 50.6367 81.2418C49.8206 83.4363 48.9181 85.6019 47.9089 87.7136C47.7495 88.0449 47.7322 88.3812 47.8523 88.7277C48.1939 89.7062 47.9516 90.7955 47.2213 91.5311C46.1758 92.5837 44.4797 92.5837 43.4342 91.5311C42.0143 90.1007 42.63 87.612 44.5619 87.0398C44.9353 86.9288 45.2074 86.6949 45.377 86.342C46.3114 84.3814 47.1474 82.3722 47.9089 80.3375C48.0856 79.8617 48.04 79.3859 47.7759 78.9541C46.7557 77.2878 47.5072 75.0221 49.3123 74.3004C49.7785 74.1151 50.0982 73.7601 50.2386 73.2771C50.7697 71.4514 51.2523 69.6128 51.6931 67.7625C51.8287 67.1941 51.6629 66.6418 51.2394 66.243C49.0254 64.1552 49.8097 60.2994 52.6384 59.2193C53.1794 59.0129 53.5374 58.5718 53.6302 57.995C53.8943 56.342 54.1302 54.6847 54.3371 53.0223C54.4062 52.4491 54.1896 51.9277 53.735 51.5755C53.4082 51.3225 53.1184 51.0242 52.8752 50.6888C52.5401 50.222 52.0237 49.989 51.4573 50.0449C51.0846 50.0799 50.7132 50.1194 50.3414 50.1579C49.3544 50.2623 48.3661 50.3769 47.3787 50.5008C46.8123 50.5704 46.3634 50.9096 46.1356 51.4388C45.6929 52.4685 44.8543 53.2881 43.8178 53.7019C43.3011 53.9099 42.9596 54.3281 42.8577 54.88C42.4343 57.1706 41.9633 59.4537 41.445 61.7262C41.3268 62.247 41.4543 62.7394 41.8094 63.1347C43.5399 65.0685 42.6965 68.2732 40.2594 69.1204C39.763 69.2929 39.415 69.6596 39.2676 70.1684C38.6481 72.3005 37.9798 74.4177 37.2392 76.5094C37.1161 76.8604 37.1335 77.1999 37.2974 77.5337C37.7957 78.5653 37.5907 79.8057 36.782 80.6193C35.7375 81.6719 34.0417 81.6719 32.9952 80.6193C31.6554 79.2694 32.1071 76.9714 33.8376 76.2332C34.1907 76.0821 34.434 75.8217 34.5644 75.4568C35.262 73.4742 35.8978 71.4699 36.4851 69.4513C36.639 68.9234 36.5298 68.4081 36.1764 67.9879C34.5625 66.0697 35.3686 63.0144 37.6939 62.1242C38.2009 61.9308 38.5443 61.5344 38.6664 61.0026C39.1609 58.8239 39.6107 56.6352 40.0181 54.4381C40.1235 53.8724 39.9397 53.3387 39.5079 52.9599C39.3614 52.8308 39.2239 52.6923 39.0954 52.5445C38.7191 52.1101 38.1883 51.9247 37.6273 52.0302C35.4451 52.44 33.2702 52.8939 31.1069 53.3927C30.5787 53.5146 30.1845 53.8604 29.9914 54.3702C29.1088 56.7132 26.0732 57.5228 24.1679 55.898C23.7527 55.5431 23.239 55.4339 22.7153 55.5872C20.7117 56.1805 18.719 56.8187 16.7497 57.5229C16.3883 57.651 16.1296 57.8968 15.9793 58.2536C15.2441 59.9959 12.9629 60.4507 11.6212 59.1008C10.5757 58.0482 10.5767 56.3409 11.6222 55.2883C12.4309 54.4738 13.663 54.2677 14.687 54.771C15.0192 54.934 15.3553 54.9516 15.7052 54.8281C17.7827 54.0844 19.8856 53.4081 22.002 52.7858C22.5077 52.6373 22.8711 52.2881 23.043 51.7873C23.8854 49.3334 27.0679 48.4834 28.9886 50.2264C29.3822 50.5851 29.8712 50.7126 30.3885 50.5942C32.6443 50.0714 34.9124 49.5992 37.1881 49.1713C37.7356 49.0684 38.151 48.7264 38.3576 48.2036C38.7692 47.162 39.5828 46.3165 40.6054 45.8721C41.1308 45.6417 41.4662 45.1897 41.5372 44.6191C41.6609 43.626 41.775 42.6314 41.8797 41.6364C41.917 41.2625 41.9543 40.8891 41.9906 40.5152C42.0471 39.941 41.8132 39.4227 41.3512 39.0843C41.017 38.8414 40.7211 38.55 40.4699 38.2207C40.1219 37.7633 39.6017 37.5439 39.0333 37.6154C37.3832 37.8227 35.7355 38.0586 34.0934 38.3262C33.5205 38.419 33.0826 38.7794 32.8776 39.3248C31.8057 42.1721 27.9749 42.9632 25.9013 40.7321C25.5048 40.3058 24.9566 40.1398 24.3921 40.2767C22.5559 40.7201 20.729 41.2055 18.9146 41.7403C18.4346 41.8803 18.0822 42.2049 17.8974 42.6724C17.1816 44.491 14.9309 45.2464 13.2772 44.2197C12.8463 43.9528 12.3743 43.9079 11.9026 44.0874C9.88072 44.8521 7.88609 45.6947 5.93903 46.6357C5.58753 46.8043 5.35524 47.0796 5.246 47.4555C4.67762 49.4022 2.20587 50.022 0.784127 48.5896C-0.261376 47.5389 -0.261376 45.8316 0.784127 44.7781C1.51347 44.0444 2.59561 43.7978 3.56722 44.1423C3.91358 44.2643 4.24579 44.2463 4.57544 44.0858C6.67319 43.0698 8.82428 42.1621 11.0046 41.3385C11.4564 41.168 11.7715 40.8452 11.9319 40.3868C12.6095 38.4582 15.0073 37.6523 16.6961 38.7929C17.0996 39.0653 17.5459 39.1343 18.0102 38.9965C19.9402 38.4271 21.8857 37.9088 23.8401 37.4385C24.3828 37.3084 24.7835 36.938 24.9602 36.4059C25.9629 33.3955 30.0277 32.5605 32.0972 34.9656C32.466 35.3919 32.9795 35.5791 33.5334 35.4892C35.2783 35.2039 37.0297 34.9519 38.7856 34.7326C39.3341 34.664 39.772 34.3457 40.0088 33.8433C40.386 33.0437 41.0116 32.3714 41.7804 31.9422C42.2839 31.6598 42.5744 31.174 42.5872 30.5953C42.6071 29.6041 42.6136 28.6139 42.6055 27.6234C42.6017 27.0402 42.3122 26.5462 41.8084 26.2599C41.2294 25.9306 40.7301 25.4668 40.3603 24.9094C40.0406 24.4271 39.5371 24.1748 38.9623 24.2097C37.477 24.3022 35.9961 24.4225 34.5159 24.57C33.9742 24.624 33.5388 24.9203 33.2847 25.4062C32.1444 27.5903 29.0313 28.0441 27.3439 26.2423C26.9686 25.8419 26.4648 25.675 25.9257 25.773C24.4821 26.036 23.0424 26.3304 21.6123 26.6597C21.1213 26.7726 20.7544 27.0741 20.5414 27.5328C19.6167 29.5361 16.9618 30.0184 15.3955 28.444C14.1514 27.1895 14.1514 25.1568 15.3955 23.9033C16.5158 22.7782 18.2862 22.6471 19.556 23.5988C19.9393 23.8877 20.3765 23.9803 20.8427 23.8713C22.4001 23.5109 23.9658 23.1909 25.5379 22.9066C26.0558 22.8131 26.4539 22.5048 26.6788 22.027C27.7847 19.6643 31.079 19.2152 32.7838 21.1755C33.1308 21.5743 33.597 21.7605 34.1197 21.7072C35.7127 21.5457 37.3102 21.4174 38.9097 21.3204C39.4623 21.2864 39.915 21.0005 40.1846 20.5127C40.4724 19.9909 40.8696 19.5321 41.3432 19.1746C41.8094 18.8207 42.0317 18.2805 41.9523 17.7001C41.8322 16.806 41.6901 15.9139 41.5253 15.0253C41.4296 14.5164 41.1327 14.1241 40.671 13.8993C38.7146 12.9392 38.2757 10.2938 39.8176 8.74335C41.0617 7.48888 43.0801 7.48888 44.3258 8.74335C45.4606 9.88687 45.5737 11.7005 44.5937 12.976C44.3068 13.349 44.2046 13.7764 44.2939 14.2406C44.5034 15.3317 44.6766 16.4318 44.8231 17.5359C44.8951 18.0787 45.2039 18.508 45.6929 18.7484C46.4251 19.1042 47.0426 19.67 47.4652 20.3677C47.7521 20.8416 48.2196 21.1129 48.7703 21.1229C49.0174 21.1294 49.2651 21.1358 49.5118 21.1423C50.2386 21.1617 50.9663 21.1899 51.6931 21.2229C52.213 21.2487 52.6666 21.0416 52.9908 20.6307C53.0856 20.5107 53.1894 20.3961 53.298 20.2878C53.6903 19.899 53.8461 19.3891 53.7359 18.8453C53.5348 17.8561 53.3124 16.8721 53.0618 15.8936C52.9343 15.3932 52.614 15.0228 52.1394 14.8274C50.3925 14.1048 49.6448 11.9241 50.5856 10.2737C50.8462 9.81889 50.8696 9.31905 50.6557 8.84029C50.2351 7.90252 49.773 6.98455 49.2606 6.09432C49.0254 5.68512 48.6713 5.43025 48.2112 5.33774C47.691 5.23422 47.2184 4.97738 46.8441 4.60149C45.7986 3.54887 45.7986 1.84216 46.8441 0.789543C47.8906 -0.263069 49.5848 -0.263069 50.6303 0.789543C51.2623 1.4268 51.5363 2.33387 51.3651 3.21666C51.287 3.61648 51.3487 3.97607 51.5556 4.32705C52.2412 5.48609 52.8463 6.69566 53.386 7.93169C53.5737 8.36353 53.8998 8.65977 54.3461 8.80081C56.3407 9.43742 57.1931 11.936 56.0011 13.6683C55.7305 14.0636 55.6531 14.5026 55.7733 14.9668C56.074 16.1204 56.3387 17.2849 56.5739 18.455C56.6758 18.9638 56.9791 19.3515 57.4453 19.5715C58.1567 19.9072 58.7552 20.4712 59.1321 21.1654C59.3818 21.6238 59.7898 21.9046 60.3071 21.9706C61.786 22.1611 63.2589 22.3868 64.7269 22.6507C64.8654 22.4718 65.0231 22.3066 65.195 22.1607ZM24.8092 67.7761C24.8866 67.5302 24.6225 67.2643 24.3793 67.3439C22.821 67.8446 21.2955 68.4573 19.8098 69.1422C17.8171 70.0592 15.8517 71.1203 13.9936 72.2929C13.7205 72.4663 13.5419 72.6962 13.442 73.007C12.9481 74.5374 10.9937 75.0208 9.8489 73.8682C9.00292 73.0172 9.00292 71.6355 9.8489 70.7845C10.2897 70.3397 10.8954 70.1096 11.5174 70.1497C11.8088 70.1691 12.0565 70.1042 12.3033 69.9473C14.3172 68.6683 16.4509 67.5101 18.6158 66.5141C20.0842 65.8373 21.5869 65.2295 23.1169 64.7178C23.5532 64.5719 23.8684 64.2831 24.0561 63.8623C24.2135 63.5029 24.4374 63.1774 24.7134 62.8995C25.9575 61.647 27.9768 61.647 29.2219 62.8995C30.4659 64.153 30.4659 66.1857 29.2219 67.4383C28.9459 67.7161 28.6223 67.942 28.2663 68.1015C27.8483 68.2904 27.5614 68.6077 27.4165 69.046C26.9085 70.5874 26.3035 72.1004 25.6314 73.5774C24.6424 75.7561 23.4931 77.9067 22.2218 79.933C22.0659 80.1814 22.002 80.4317 22.0213 80.7245C22.0595 81.3508 21.8317 81.9605 21.3909 82.4043C20.5449 83.256 19.1723 83.256 18.3263 82.4043C17.1832 81.2533 17.6641 79.2837 19.1823 78.7878C19.491 78.6859 19.7189 78.507 19.892 78.2301C21.0567 76.3606 22.1106 74.3826 23.0221 72.3754C23.7017 70.88 24.3099 69.344 24.8092 67.7761ZM88.8123 32.0054C89.6573 32.8564 89.6573 34.2389 88.8123 35.0909C87.966 35.9407 86.5934 35.9407 85.7475 35.0909C84.9015 34.2389 84.9015 32.8564 85.7475 32.0054C86.5934 31.1536 87.966 31.1536 88.8123 32.0054ZM72.4094 19.6226C71.7819 18.9889 71.6014 18.0373 71.9493 17.2202C72.0769 16.9203 72.1087 16.6354 72.0515 16.3161C71.9593 15.8073 71.8266 15.3037 71.6679 14.814C71.4057 14.0033 71.0606 13.1818 70.6314 12.4465C70.5058 12.2301 70.3502 12.0782 70.1333 11.9559C69.1479 11.4085 68.9574 10.0423 69.7536 9.24268C70.6924 8.29617 72.3275 8.76307 72.6225 10.0699C72.6572 10.232 72.7143 10.3659 72.8046 10.5053C73.4778 11.5349 74.0178 12.7389 74.3976 13.9099C74.5689 14.4408 74.7134 14.9836 74.8237 15.5283C74.8956 15.8916 75.0634 16.1767 75.3438 16.417C75.4322 16.4921 75.5151 16.5794 75.5916 16.6683C75.8303 16.9488 76.1143 17.1177 76.4742 17.1902C77.0159 17.3011 77.555 17.4466 78.0807 17.619C79.2447 18.0014 80.4406 18.5435 81.4633 19.2228C81.6018 19.3127 81.7354 19.3697 81.8957 19.4082C83.1938 19.7032 83.6574 21.35 82.7192 22.2945C81.9231 23.0961 80.5662 22.9044 80.0226 21.9123C79.9015 21.694 79.7501 21.5383 79.5352 21.4108C78.8065 20.9786 77.9888 20.6323 77.1846 20.3673C76.6981 20.2076 76.1982 20.0745 75.6934 19.9829C75.3747 19.9234 75.0916 19.954 74.7954 20.084C73.9812 20.435 73.0369 20.2524 72.4094 19.6226ZM32.4503 85.4016C33.2956 86.2533 33.2956 87.6343 32.4503 88.4854C31.6043 89.3371 30.2327 89.3371 29.3867 88.4854C28.5414 87.6343 28.5414 86.2533 29.3867 85.4016C30.2327 84.5499 31.6043 84.5499 32.4503 85.4016ZM62.7833 85.0294C63.8292 86.0821 63.8292 87.7896 62.7833 88.8422C61.7378 89.8938 60.042 89.8948 58.9975 88.8422C57.952 87.7896 57.952 86.084 58.9975 85.0294C60.042 83.9788 61.7378 83.9788 62.7833 85.0294ZM78.5999 74.1636C78.5179 74.5376 78.5825 74.8803 78.7984 75.196C79.5223 76.2651 79.3893 77.7047 78.4778 78.6218C77.4323 79.6744 75.7381 79.6744 74.6926 78.6218C73.4713 77.3919 73.7161 75.3181 75.1899 74.413C75.5087 74.2176 75.7082 73.9371 75.7901 73.5683C76.1198 72.0719 76.4032 70.5625 76.648 69.0486C76.9105 67.4273 77.129 65.7971 77.2993 64.1632C77.3465 63.7174 77.2273 63.325 76.9404 62.9831C76.0459 61.913 76.1133 60.3301 77.0962 59.3409C78.4039 58.023 80.6417 58.4183 81.4186 60.1082C81.5809 60.463 81.8267 60.7108 82.1791 60.8748C82.8375 61.1837 83.4714 61.5314 84.0982 61.8979C84.3614 62.0532 84.6255 62.1054 84.9269 62.067C85.5936 61.9816 86.2583 62.2099 86.7338 62.6877C87.5798 63.5404 87.5798 64.9214 86.7338 65.7735C85.6337 66.8811 83.7593 66.484 83.1883 65.0416C83.0743 64.7527 82.895 64.5418 82.6273 64.3859C82.058 64.0549 81.4832 63.7423 80.8875 63.4654C80.6099 63.335 80.252 63.5478 80.2208 63.8542C80.0361 65.7459 79.7848 67.6367 79.4805 69.5145C79.2283 71.0715 78.9376 72.6238 78.5999 74.1636ZM59.9074 2.9047C60.7534 3.75546 60.7534 5.13833 59.9074 5.98909C59.0621 6.84114 57.6895 6.84114 56.8445 5.98909C55.9972 5.13833 55.9972 3.75546 56.8445 2.9047C57.6895 2.05265 59.0621 2.05265 59.9074 2.9047ZM6.87143 59.6499C7.71773 60.5016 7.71773 61.8815 6.87143 62.7335C6.02546 63.5852 4.65481 63.5852 3.80883 62.7335C2.96253 61.8815 2.96253 60.5016 3.80883 59.6499C4.65481 58.7972 6.02546 58.7972 6.87143 59.6499ZM7.24125 29.1105C8.28611 30.1631 8.28611 31.8703 7.24125 32.9233C6.19575 33.9739 4.49994 33.9739 3.45443 32.9233C2.41054 31.8703 2.41054 30.1631 3.45443 29.1105C4.49994 28.0579 6.19575 28.0589 7.24125 29.1105ZM18.033 13.1873C19.564 12.8454 21.1049 12.553 22.6523 12.299C24.5187 11.9927 26.3938 11.7403 28.2753 11.5543C28.5786 11.5252 28.7891 11.1636 28.6609 10.8822C28.3865 10.2825 28.0742 9.70397 27.7465 9.13271C27.5906 8.86131 27.3831 8.68056 27.0942 8.56606C25.6616 7.99091 25.2673 6.10494 26.3684 4.99637C27.2134 4.14431 28.587 4.14431 29.4314 4.99637C29.9066 5.47577 30.1334 6.14511 30.0489 6.81537C30.0103 7.11912 30.0643 7.38497 30.2163 7.64796C30.5816 8.28167 30.9257 8.91987 31.2329 9.58366C31.3967 9.93755 31.6416 10.1843 31.994 10.3493C33.6728 11.1305 34.0651 13.3826 32.7565 14.7005C31.7746 15.6897 30.2018 15.7566 29.1406 14.856C28.799 14.5675 28.4112 14.4473 27.9685 14.4951C26.3437 14.6666 24.7263 14.8865 23.1143 15.1504C21.6107 15.3982 20.1124 15.6843 18.6252 16.0162C18.2598 16.0971 17.9803 16.2969 17.7862 16.6198C16.8882 18.1023 14.8271 18.3492 13.6068 17.1203C12.561 16.0677 12.561 14.3611 13.6068 13.3085C14.5164 12.3924 15.9465 12.2585 17.0074 12.9873C17.3207 13.2031 17.6632 13.2701 18.033 13.1873ZM54.4935 39.3078C53.725 38.876 53.083 38.2298 52.6557 37.4566C52.3617 36.9274 51.838 36.6295 51.2369 36.6479C50.4462 36.6738 49.6558 36.7054 48.866 36.7459C48.2906 36.775 47.8186 37.0807 47.5535 37.5941C47.1464 38.3847 46.499 39.03 45.7093 39.4334C45.2138 39.6867 44.9125 40.1332 44.8588 40.6889C44.8186 41.1043 44.7785 41.5187 44.7348 41.9334C44.6255 42.9795 44.5063 44.0249 44.3759 45.0681C44.3068 45.6258 44.5063 46.1273 44.9369 46.4841C45.1512 46.662 45.3497 46.8618 45.5261 47.0782C45.8805 47.511 46.3798 47.712 46.9334 47.6421C47.969 47.513 49.0064 47.3911 50.0455 47.2818C50.458 47.2387 50.8696 47.1966 51.2822 47.1562C51.8351 47.1022 52.2788 46.7969 52.5291 46.3007C52.9288 45.5059 53.5711 44.8517 54.357 44.4428C54.8663 44.1759 55.1705 43.701 55.2004 43.1223C55.2386 42.3275 55.2714 41.5305 55.2978 40.7357C55.3151 40.1305 55.0192 39.6022 54.4935 39.3078ZM65.7325 27.4435C65.1879 27.1463 64.7333 26.6889 64.4403 26.1412C64.1996 25.6984 63.8153 25.4205 63.3209 25.3371C62.2397 25.1546 61.156 24.9942 60.0684 24.8522C59.5292 24.7807 59.0393 24.9685 58.6823 25.3829C58.5721 25.5103 58.4529 25.6323 58.3269 25.7442C57.9372 26.09 57.7534 26.5514 57.8016 27.0722C57.8781 27.9064 57.9427 28.7427 57.9973 29.5798C58.0349 30.1605 58.3488 30.6308 58.8664 30.8892C59.7924 31.3505 60.5574 32.1198 61.0165 33.0534C61.2726 33.5732 61.7417 33.8886 62.3172 33.928C63.1477 33.984 63.9776 34.0501 64.8072 34.1255C65.3245 34.174 65.7846 33.9885 66.1261 33.5981C66.2379 33.4697 66.3581 33.3497 66.4857 33.2388C66.8972 32.879 67.0833 32.3857 67.0139 31.8429C66.8728 30.7492 66.7106 29.6568 66.5313 28.5695C66.4484 28.0707 66.1734 27.6836 65.7325 27.4435ZM58.9975 39.3473C58.4863 39.6216 58.1878 40.1076 58.1705 40.6899C58.1441 41.5876 58.1059 42.4851 58.0603 43.3828C58.032 43.9385 58.2662 44.4254 58.717 44.7482C59.1385 45.0491 59.5029 45.427 59.7898 45.8588C60.0986 46.3217 60.5712 46.5703 61.1248 46.5593C62.2307 46.5367 63.3363 46.5304 64.4438 46.5368C64.9948 46.5433 65.463 46.2913 65.7673 45.828C66.1088 45.3053 66.5676 44.8608 67.0987 44.535C67.5887 44.2316 67.8582 43.7318 67.8464 43.1531C67.8419 42.9526 67.8373 42.7508 67.8319 42.55C67.8126 41.8752 67.7892 41.1992 67.759 40.5244C67.7336 39.9813 67.464 39.5267 67.002 39.2462C66.432 38.8998 65.9584 38.399 65.6451 37.8083C65.3855 37.3243 64.9483 37.0325 64.4037 36.984C63.6971 36.9206 62.9919 36.8647 62.2844 36.8181C61.6813 36.7777 61.1476 37.0591 60.8373 37.5818C60.3955 38.3245 59.7551 38.9394 58.9975 39.3473ZM52.6156 32.9215C53.0201 32.1594 53.6312 31.5139 54.3663 31.0701C54.8862 30.7563 55.1657 30.22 55.1265 29.6122C55.0793 28.8996 55.0237 28.1898 54.9617 27.4781C54.9135 26.9317 54.624 26.4889 54.142 26.2301C53.5566 25.9131 53.0593 25.4364 52.7158 24.8612C52.4372 24.3974 51.9836 24.1259 51.4454 24.1003C50.7732 24.0712 50.103 24.046 49.4325 24.0279C49.2323 24.0214 49.0318 24.0181 48.8333 24.0117C48.2585 23.9987 47.7624 24.2706 47.4626 24.7655C47.1365 25.3002 46.6956 25.7605 46.1764 26.1043C45.7167 26.4097 45.468 26.8819 45.4734 27.4366C45.4834 28.5497 45.4763 29.6648 45.4526 30.7779C45.4407 31.3356 45.6874 31.8125 46.1475 32.1224C46.5765 32.4113 46.9517 32.7796 47.2502 33.2024C47.5718 33.6553 48.0544 33.8921 48.6083 33.8637C49.499 33.8177 50.3896 33.7812 51.2815 33.7527C51.8605 33.7365 52.3415 33.4358 52.6156 32.9215Z"/>
</svg>
